<svg xmlns="http://www.w3.org/2000/svg" viewBox="0 0 64 64">
  <rect width="64" height="64" rx="14" fill="#46d39a"/>
  <path fill="#ff4fa1" d="M32 4
    C29 9 27 14 26 20
    C21 17 16 15 10 14
    C12 19 14 24 20 28
    C14 30 9 32 4 35
    C9 38 14 40 20 42
    C14 46 12 51 10 56
    C16 55 21 53 26 50
    C27 56 29 61 32 60
    C35 61 37 56 38 50
    C43 53 48 55 54 56
    C52 51 50 46 44 42
    C50 40 55 38 60 35
    C55 32 50 30 44 28
    C50 24 52 19 54 14
    C48 15 43 17 38 20
    C37 14 35 9 32 4 Z"/>
  <circle cx="26" cy="33" r="4" fill="#0b0f14" opacity="0.9"/>
  <circle cx="38" cy="33" r="4" fill="#0b0f14" opacity="0.9"/>
</svg>
